<svg width="240" viewBox="0 0 240 250" role="img" xmlns="http://www.w3.org/2000/svg">
<title>역성 문양</title><desc>지워진 별자리와 끊어진 사슬, 헌터 에테르나 다크 헌터 연합 역성</desc>
<g transform="translate(120,120)">
<circle cx="0" cy="0" r="108" fill="#0a0a0e"/>
<circle cx="0" cy="0" r="108" fill="none" stroke="#5a5560" stroke-width="3" stroke-dasharray="120 18 60 12 200 22"/>
<circle cx="0" cy="0" r="99" fill="none" stroke="#8a2430" stroke-width="0.8" opacity="0.6" stroke-dasharray="4 6"/>
<g stroke="#6b6570" stroke-width="0.6" opacity="0.7" fill="none">
<polyline points="-70,-40 -40,-62 -6,-50 20,-70 56,-48"/>
<polyline points="-60,40 -30,56 8,48 40,64 66,38"/>
</g>
<g fill="#6b6570"><circle cx="-70" cy="-40" r="1.6"/><circle cx="-40" cy="-62" r="1.6"/><circle cx="20" cy="-70" r="1.6"/><circle cx="56" cy="-48" r="1.6"/>
<circle cx="-60" cy="40" r="1.6"/><circle cx="8" cy="48" r="1.6"/><circle cx="40" cy="64" r="1.6"/><circle cx="66" cy="38" r="1.6"/></g>
<g fill="none" stroke="#6b6570" stroke-width="0.9"><circle cx="-6" cy="-50" r="3" stroke-dasharray="2 2"/><circle cx="-30" cy="56" r="3" stroke-dasharray="2 2"/></g>
<g transform="translate(0,-4) rotate(180)">
<path d="M0,-46 L10,-10 L46,0 L10,10 L0,46 L-10,10 L-46,0 L-10,-10 Z" fill="#000" stroke="#b3a9b8" stroke-width="1.4"/>
<path d="M0,-24 L5,-5 L24,0 L5,5 L0,24 L-5,5 L-24,0 L-5,-5 Z" fill="#0a0a0e" stroke="#8a2430" stroke-width="1"/>
</g>
<g stroke="#b3a9b8" stroke-width="2" fill="none" stroke-linecap="round">
<rect x="-78" y="-8" width="16" height="10" rx="5"/><rect x="-60" y="-8" width="16" height="10" rx="5" transform="rotate(-18 -52 -3)"/>
<rect x="62" y="-8" width="16" height="10" rx="5"/><rect x="44" y="-8" width="16" height="10" rx="5" transform="rotate(18 52 -3)"/>
</g>
<text x="0" y="86" text-anchor="middle" font-family="'Nanum Myeongjo',serif" font-size="15" font-weight="700" letter-spacing="5" fill="#b3a9b8">逆星</text>
</g>
</svg>
